<svg height="512" viewBox="0 0 42 60" width="512" xmlns="http://www.w3.org/2000/svg"><g id="029---David-Bowie"><path id="Shape" d="m39.66 35.76c1.4999086-1.5015768 2.3416689-3.5376296 2.34-5.66v-21.1c0-4.97056275-4.0294373-9-9-9h-24c-4.97056275 0-9 4.02943725-9 9v21.1c-.00166892 2.1223704.84009143 4.1584232 2.34 5.66l1.66 1.65v7.18l-1.83 1.82c-.74444952.7544495-1.16435145 1.7701098-1.17 2.83v5.06c-.00043515 1.4046545.73594384 2.706603 1.94 3.43l3.54 2.13c.30960743.1884915.69697449.1946873 1.01245164.0161936.31547716-.1784937.50966669-.513728.50754836-.8761936v-9.25l6.07 6.63c.9482877 1.0337217 2.2872071 1.62154 3.69 1.62h6.48c1.4027929.00154 2.7417123-.5862783 3.69-1.62l6.07-6.63v9.25c-.0021183.3624656.1920712.6976999.5075484.8761936.3154771.1784937.7028442.1722979 1.0124516-.0161936l3.53-2.13c1.2271151-.7084062 1.9878903-2.0131358 2-3.43v-5.06c-.0056485-1.0598902-.4255505-2.0755505-1.17-2.83l-1.88-1.82v-7.18zm-37.66-5.66v-21.1c0-3.86599325 3.13400675-7 7-7h24c3.8659932 0 7 3.13400675 7 7v21.1c-.0025128 1.7119828-.7290366 3.3430287-2 4.49v-9.59c0-4.9705627-4.0294373-9-9-9h-16c-4.97056275 0-9 4.0294373-9 9v9.59c-1.27725266-1.1423959-2.00509521-2.7764024-2-4.49zm18-4.1h6.69l-10.28 10.92 2.5-5.51c.138945-.3090949.111891-.6675277-.0718755-.9522648s-.4992368-.4570288-.8381245-.4577352h-7.38l6-12h5.76l-3.27 6.55c-.1559692.3095182-.1405453.6777279.0407631.9731178.1813083.29539.5026437.4758333.8492369.4768822zm-14 31.23-2-1.23c-.61203127-.3532988-.99218357-1.0033592-1-1.71v-5.05c0-1 .59-1.42 2-2.79l1 1.12zm20.45-2.23c-.5630504.6295742-1.3654083.992632-2.21 1h-6.48c-.8445917-.007368-1.6469496-.3704258-2.21-1l-9.55-10.39v-19.61c0-3.8659932 3.13400675-7 7-7h1.38l-6.27 12.55c-.15596925.3095182-.14054526.6777279.04076307.9731178.18130834.29539.50264372.4758333.84923693.4768822h7.45l-4.36 9.59c-.2055005.4460671-.0566603.9753393.3512158 1.2489147.407876.2735754.9540443.2104674 1.2887842-.1489147l16-17c.2768687-.2904195.3533372-.7182069.1942264-1.0865593-.1591108-.3683525-.5229864-.6059321-.9242264-.6034407h-7.38l3-6h4.38c3.8659932 0 7 3.1340068 7 7v19.61zm12.55-5.76v5.06c-.0113208.7030545-.3910054 1.3485183-1 1.7l-2 1.22v-9.65l1-1.12 1.38 1.38c.3866211.3683782.6098637.8760753.62 1.41z"/><path id="Shape" d="m27 47c-1.5592036-.0072549-3.1029796-.3092242-4.55-.89-.1393223-.0713839-.2934577-.1090614-.45-.11-2.16 0-2.16 0-2.45.11-1.4470204.5807758-2.9907964.8827451-4.55.89-.5522847 0-1 .4477153-1 1s.4477153 1 1 1c1.7897825-.0110555 3.5623893-.3499861 5.23-1h1.54c1.6676107.6500139 3.4402175.9889445 5.23 1 .5522847 0 1-.4477153 1-1s-.4477153-1-1-1z"/></g></svg>